/* XPM */
static char *result[] = {
/* columns rows colors chars-per-pixel */
"8 10 2 1 ",
"  c #0E2F31",
". c white",
/* pixels */
"  ....  ",
"  ....  ",
"..    ..",
"..    ..",
"..    ..",
"..    ..",
"..    ..",
"..    ..",
"  ....  ",
"  ....  "
};
