/* XPM */
static char *_3839db18568457cab2e9350c95a65522K99kJrf1KT3ZlrW[] = {
/* columns rows colors chars-per-pixel */
"8 10 2 1 ",
"  c #0E2F31",
". c white",
/* pixels */
"   ..   ",
"   ..   ",
" ....   ",
" ....   ",
"   ..   ",
"   ..   ",
"   ..   ",
"   ..   ",
" ...... ",
" ...... "
};