/* XPM */
static char *_4b4b6e6cd894159ae7c690a42fa2229KG5SWeiFHfdsgjKL[] = {
/* columns rows colors chars-per-pixel */
"8 10 2 1 ",
"  c #0E2F31",
". c white",
/* pixels */
"  ....  ",
"  ....  ",
"..    ..",
"..    ..",
"    ..  ",
"    ..  ",
"  ..    ",
"  ..    ",
"........",
"........"
};
