/* XPM */
static char *_904213aa06143b5834ab0d187200a55Ebubky1IYdMxorys[] = {
/* columns rows colors chars-per-pixel */
"8 10 2 1 ",
"  c #0E2F31",
". c white",
/* pixels */
"  ....  ",
"  ....  ",
"..    ..",
"..    ..",
"    ..  ",
"    ..  ",
"..    ..",
"..    ..",
"  ....  ",
"  ....  "
};
