/* XPM */
static char *_1bff0de5df34aa8f6832d644af668caMENjcmQwmHYOT7MN[] = {
/* columns rows colors chars-per-pixel */
"8 10 2 1 ",
"  c #0E2F31",
". c white",
/* pixels */
"    ..  ",
"    ..  ",
"  ....  ",
"  ....  ",
"..  ..  ",
"..  ..  ",
"........",
"........",
"    ..  ",
"    ..  "
};
