/* XPM */
static char *_cb55992333e42f4bb0b792def1b4e71LInUUejtiQ885kB7[] = {
/* columns rows colors chars-per-pixel */
"8 10 2 1 ",
"  c #0E2F31",
". c white",
/* pixels */
"........",
"........",
"..      ",
"..      ",
"......  ",
"......  ",
"      ..",
"      ..",
"......  ",
"......  "
};
