/* XPM */
static char *_887cca0404b453792d33d03cd2f0274PSQ0ensbLSUAx7Um[] = {
/* columns rows colors chars-per-pixel */
"8 10 2 1 ",
"  c #0E2F31",
". c white",
/* pixels */
"  ....  ",
"  ....  ",
"..      ",
"..      ",
"......  ",
"......  ",
"..    ..",
"..    ..",
"  ....  ",
"  ....  "
};
