/* XPM */
static char *d3d65231e0994d4193d9d8e227b7833frY3cOxjoKAbUIeTC[] = {
/* columns rows colors chars-per-pixel */
"8 10 2 1 ",
"  c #0E2F31",
". c white",
/* pixels */
"......  ",
"......  ",
"      ..",
"      ..",
"      ..",
"      ..",
"    ..  ",
"    ..  ",
"    ..  ",
"    ..  "
};
