/* XPM */
static char *bb61fc1c27d74517dba54a41f3dd49f8zwTNLvBARBFMnfrI[] = {
/* columns rows colors chars-per-pixel */
"8 10 2 1 ",
"  c #0E2F31",
". c white",
/* pixels */
"  ....  ",
"  ....  ",
"..    ..",
"..    ..",
"  ....  ",
"  ....  ",
"..    ..",
"..    ..",
"  ....  ",
"  ....  "
};
