/* XPM */
static char *_41f21904b354b57ed84bfa76700689dsUUScbrngk6gNs3r[] = {
/* columns rows colors chars-per-pixel */
"8 10 2 1 ",
"  c #0E2F31",
". c white",
/* pixels */
"  ....  ",
"  ....  ",
"..    ..",
"..    ..",
"  ......",
"  ......",
"      ..",
"      ..",
"  ....  ",
"  ....  "
};
