/* XPM */
static char *_2a904bf9ede428989d5373e1bd6a85bZbgxeqFz71VDiIB9[] = {
/* columns rows colors chars-per-pixel */
"64 64 8 1 ",
"  c black",
". c #0D0614",
"X c #170A24",
"o c #2A1140",
"O c #421A63",
"+ c #61258F",
"@ c #6E29AB",
"# c #8020C9",
/* pixels */
"                                                                ",
"                                                                ",
"                                                                ",
"                                                                ",
"                                                                ",
"                                                                ",
"                                                                ",
"                                                                ",
"                                                                ",
"                                                                ",
"                                                                ",
"                                                                ",
"                            ###                                 ",
"                           ###                                  ",
"                          ###        ########                   ",
"                        ###### +++++++###                       ",
"                       ######++++++++###                        ",
"                       #####+++++#######                        ",
"                       ####++++##########                       ",
"                 #    ####++++@@@@@@@#########                  ",
"                ##   #####+++@+++++++@@##########               ",
"                ##   ####++++++++++++++++++#######              ",
"                ### #####++++++OOOOO+++++++++######             ",
"                ########@++++OOOOOOOOO++++++++#######           ",
"                #######@+++OOOOoooooOOOO+++@+++######           ",
"                ++#####@++OOOoooooooooOOO++@#+++#####           ",
"                ++####@+++OOoooXXXXXoooOO+++@#+++#####          ",
"                ++####@++OOoooXXXXXXXoooOO++@##++#####          ",
"                ++###@+++OOooXXX...XXXooOO+++@#++#####          ",
"                ++###@++OOooXXX.....XXXooOO++@#++##  #          ",
"                +++##@++OOooXX.......XXooOO++@##+#              ",
"                 ++##@++OOooXX.......XXooOO++@####              ",
"                 +++#@++OOooXX.......XXooOO++@#####             ",
"                  +++@++OOooXXX.....XXXooOO+++######            ",
"                  +++@+++OOooXXX...XXXooOO+++++#####            ",
"             ##   ++++@++OOoooXXXXXXXoooOO++@++######           ",
"              ## ##+++++++OOoooXXXXXoooOO+++@++######           ",
"              #######+++++OOOoooooooooOOO++@#++######           ",
"               ########@+++OOOOoooooOOOO+++@#++######           ",
"                ########@++++OOOOOOOOO++++@##++######           ",
"                 ########@+++++OOOOO+++++@###++## ###           ",
"                  ########@@+++++++++++@@####++#   ##           ",
"                   ##++++###@@+++++++@@#####+++#   ##           ",
"                      #+++++##@@+++@@######+++#                 ",
"                        +++++++++++########+++                  ",
"                         ###++++##############                  ",
"                         #####################                  ",
"                    ##   #############   ####                   ",
"                    ### ##########        ###                   ",
"                     ######              ##                     ",
"                                       ###                      ",
"                                       ##                       ",
"                                                                ",
"                                                                ",
"                                                                ",
"                                                                ",
"                                                                ",
"                                                                ",
"                                                                ",
"                                                                ",
"                                                                ",
"                                                                ",
"                                                                ",
"                                                                "
};
