/* XPM */
static char *_74a6dbd97f84ad5f8255d56c547d7bfwYxEwB5hoRm6C6ru[] = {
/* columns rows colors chars-per-pixel */
"64 64 8 1 ",
"  c black",
". c #0D0614",
"X c #170A24",
"o c #2A1140",
"O c #421A63",
"+ c #61258F",
"@ c #6E29AB",
"# c #8020C9",
/* pixels */
"                                                                ",
"                                                                ",
"                                                                ",
"                                                                ",
"                                                                ",
"                                                                ",
"                                                                ",
"                                                                ",
"                                                                ",
"                                                                ",
"                                                                ",
"                              #                                 ",
"                            ###                                 ",
"                           ###                                  ",
"                          ###      ++++++#####                  ",
"                         #####   ++++++++######                 ",
"                        ######++++++########                    ",
"                       ######+++++#########                     ",
"                 ##    ######++++###########                    ",
"                ###    +####+++@@@@@@@########                  ",
"                ##    #+####++@+++++++@@#######                 ",
"                #     ++###@++++++++++++@@########              ",
"                ##   +++##@+++++OOOOO+++++@########             ",
"                #####++##@++++OOOOOOOOO++++++######             ",
"                #####++#@+++OOOOoooooOOOO++++++#####            ",
"                 ####++#@++OOOoooooooooOOO++++++#####           ",
"                 ###++#@+++OOoooXXXXXoooOO+++++++#####          ",
"                 ###++#@++OOoooXXXXXXXoooOO++@++++# ##          ",
"                 ###++@+++OOooXXX...XXXooOO+++@+++   #          ",
"                 ###++@++OOooXXX.....XXXooOO++@#+++             ",
"                 ####++++OOooXX.......XXooOO++@#+++             ",
"                 ####++++OOooXX.......XXooOO++@##++             ",
"                  ###++++OOooXX.......XXooOO++@##++             ",
"                  ####@++OOooXXX.....XXXooOO++@##++             ",
"                  ####@+++OOooXXX...XXXooOO+++@##++             ",
"                  #####@++OOoooXXXXXXXoooOO++@####+#            ",
"                   ####@+++OOoooXXXXXoooOO+++@######            ",
"              ##   #####@++OOOoooooooooOOO+++#######            ",
"              ##   #####@+++OOOOoooooOOOO++++###  ##            ",
"               ## #######@++++OOOOOOOOO++++++##    #            ",
"                ##########@+++++OOOOO++++++++##    #            ",
"                 ####++####@@+++++++++++@@++###    #            ",
"                 ####+++#####@@+++++++@@#+++###    #            ",
"                   ##++++++++++++@@@@@##+++####                 ",
"                      #+++++++++#######+++####                  ",
"                       #############+++++#####                  ",
"                         ##########+++++######                  ",
"                          ###################                   ",
"                         #########  ########                    ",
"                       ##########    ######                     ",
"                       ########      ######                     ",
"                                    ####                        ",
"                                                                ",
"                                                                ",
"                                                                ",
"                                                                ",
"                                                                ",
"                                                                ",
"                                                                ",
"                                                                ",
"                                                                ",
"                                                                ",
"                                                                ",
"                                                                "
};
