/* XPM */
static char *d42ae260a056417fc85ddd5bcbfb2e96DMMqQukCuvH1wziv[] = {
/* columns rows colors chars-per-pixel */
"64 64 9 1 ",
"  c black",
". c #0D0614",
"X c #170A24",
"o c #2A1140",
"O c #421A63",
"+ c #61258F",
"@ c #6E29AB",
"# c #801FC9",
"$ c #8020C9",
/* pixels */
"                                                                ",
"                                                                ",
"                                                                ",
"                                                                ",
"                                                                ",
"                                                                ",
"                                                                ",
"                                                                ",
"                                                                ",
"                                                                ",
"                             $$                                 ",
"                            $$$$                                ",
"                           $$$$                                 ",
"                          $$$                                   ",
"                         $$$       $$$$$$$$$ #                  ",
"                         $$$$     +$$$$$$$$$$                   ",
"                        $$$$$$++++$$$$$$$$                      ",
"                       $$$$$$++++$$$$$$$$$                      ",
"                      $$$$$++++$$$$$$$$+++                      ",
"                     $$$$$++++$@$$@$$++++++ +                   ",
"                     $$$$+++$@@@++@++++++++++++                 ",
"                     $$$$++@@+++++++++@@@++$++++                ",
"              #$    $$$$++@+++++++O+++++@@$$$$+++               ",
"               $   $$$$+++++++OOOOOOO++++@@$$$$+++              ",
"              $$   $$$$$++++OOOOooOOOOOO++@@$$$$++$             ",
"              $   $$$$$@+++OOOooooooOoOOO++@@$$$$$$$            ",
"              $$$$$$$$$+++OOOooXooXooooOOO++$$$$$$$$$           ",
"             $$$$$$$$$@+++OOooXXXXXXXoooOO++@$$$$$$$$$          ",
"              $$$$$$$$+++OOooXXXXXXXXXoooO+++$$$$   $$          ",
"              $$$+$$$@@++OOoXXX.....XXXoOOO++@$$$$   $          ",
"               $+++$$$+++OoooX.......XXooOO+++$$$$              ",
"                ++$$$@++OOooXXX......XXooOO++@$$$$              ",
"                $+$$$@++OOooXXX......XXooOO+++$$$$              ",
"                +++$$$+++OoooX.......XXooOO++++$$$              ",
"                $+++$@@++OOoXXX.....XXXoOOO++++$$$$             ",
"                 $+++$+++OOooXXXXXXXXXoooO++++++$$$$            ",
"                $$$+++@+++OOooXXXXXXXoooOO++@++$$$$$            ",
"            $$ $$$$$++++++OOOooXooXooooOOO+++++$$$$$            ",
"             $$$$$$$$++++++OOOooooooOoOOO++@@+++$$$             ",
"              $$$$$$$$+$@+++OOOOooOOOOOO++@@$+++$$$             ",
"               $$$$$$$$$$@++++OOOOOOO++++@@$+++$$$$             ",
"                $$$$$$$$$$@+++++++O+++++@@$$+++  $$             ",
"                 $$$$$$$$$$@@+++++++++@@@$$$+++  $#             ",
"                   $$ $+++$$$@@@+++++@$$$$$+++   #              ",
"                       $+++$+++@++++$$$$$$+++                   ",
"                      $$$++++++++++$$$$$$$++                    ",
"                       $$$+$$+$$+$$$$  $$$+                     ",
"                    #$$$$$$$$$$$$$$$    $$$                     ",
"                     #$$$$$$$$$$$$$     $$                      ",
"                      #$$$$$$$$$        $                       ",
"                         $$$$$$        $                        ",
"                                      $                         ",
"                                                                ",
"                                                                ",
"                                                                ",
"                                                                ",
"                                                                ",
"                                                                ",
"                                                                ",
"                                                                ",
"                                                                ",
"                                                                ",
"                                                                ",
"                                                                "
};
