/* XPM */
static char *fde0b342aa7947baf35c79bb8c60a144My0UYn1weBj4DIyu[] = {
/* columns rows colors chars-per-pixel */
"64 64 9 1 ",
"  c black",
". c #0D0614",
"X c #170A24",
"o c #2A1140",
"O c #421A63",
"+ c #61258F",
"@ c #6E29AB",
"# c #821FC9",
"$ c #8020C9",
/* pixels */
"                                                                ",
"                                                                ",
"                                                                ",
"                                                                ",
"                                                                ",
"                                                                ",
"                                                                ",
"                                                                ",
"                                                                ",
"                                                                ",
"                                                                ",
"                             $                                  ",
"                           $$                                   ",
"                          $$$      $$$ $$$$                     ",
"                         $$$$     $$$$$$$$$$$                   ",
"                        +$$$   $$$$$$$$$$ $                     ",
"                        ++$$$$$$$$$$$$$$$$                      ",
"                       ++$$$$$$$$$$$+++++++                     ",
"                      ++$$$$$$$$$$++++++++++                    ",
"                     +++$$$$$$@+@+++++++++++++                  ",
"                     ++$$$$$@+@++++++@+@@$$$+++                 ",
"               $$    ++$$$@+++++++++++++@@$$$+++$               ",
"                $    ++$$@++++++OOOOO++++@@$$$$$$$$             ",
"               $$$  +++$@+++OOOOOOOOOOO++++@$$$$$$$$            ",
"               $$ $++++@@++OOOOoooooooOOO+++$$$$    $           ",
"               $$$$$++@@++OOOooooooooooOOO+@@$$$     $          ",
"               $$$$$++++++OOoooXXXXXXoooO++++$$$                ",
"                $$$$$+@+++OoooXXXXXXXXooOOO+++$$$               ",
"                $$$$+++++OOooXXX....XXXooO+++++$$$              ",
"               $$$$$$$+++OOoXXX......XXooOO+++++$$$             ",
"                $$$$$@+++OoooXX......XXoooO+++++$$$             ",
"                $+$$$@@+OOOooXX......XXXoOOO+++++$$$            ",
"                 ++$$$++OOOoXXX......XXooOO++@@++$$$$           ",
"                 $++$$+++OoooXX......XXooOO++@$+$$$$$           ",
"                  ++$@@++OOOoXXX.X..XXoooO+++@+++$$$$           ",
"             $$   +++$$+++OoooXXXXXXXXooOOO+@$$++$$$$           ",
"             $$   $+++@@++OOooooXXooXooOOO+++@$++$$$$           ",
"             $$   $$++$@+++OOOoooooooooOO+++@$+++$$$$$          ",
"              $$$$$$$++@@+++OOOOoooOOOOO+++@$$++$$$$$           ",
"               $$$$$$+++@++++OOOOOOOOO++++@$$$+$$$$$$           ",
"                $$$$$$+++++++++++OOO+++++++$$$$$$$$$$           ",
"                   $$$$$$++@+++++++++++@++$$$$$   $$#           ",
"                    $$$$$$$$@@@+@++++@$@++$$$$$   $$            ",
"                     $$$$$$$$$$$@$@@$$$++$$$$$$                 ",
"                      $$$$$$$$$$$$$$$$++$$$$$$$                 ",
"                         $$$$$$$$$$$$+++$$$$$$                  ",
"                          $ $$$$$$$++++$$$$$$$$                 ",
"                             $$$$+++++$$$$$$$$                  ",
"                             $$$$+++$$   $$$$                   ",
"                          $   $$$$$      $$$                    ",
"                         $$$$$$$$$       $$                     ",
"                               $        $$                      ",
"                                         $                      ",
"                                                                ",
"                                                                ",
"                                                                ",
"                                                                ",
"                                                                ",
"                                                                ",
"                                                                ",
"                                                                ",
"                                                                ",
"                                                                ",
"                                                                "
};
