/* XPM */
static char *_51751c0ae2f418bded4c64e423e6e7ekXHbNl5vEW0J9Rov[] = {
/* columns rows colors chars-per-pixel */
"64 64 7 1 ",
"  c #162829",
". c #0E2F31",
"X c #003133",
"o c #003437",
"O c #21383E",
"+ c #19464B",
"@ c white",
/* pixels */
"OO  XXXXXXXXXXXXXXXXXXXXXXXXXXXXXXXXXXXXXXXXXXXXXXXXXXXXXXXX  OO",
"OO  XXXXXXXXXXXXXXXXXXXXXXXXXXXXXXXXXXXXXXXXXXXXXXXXXXXXXXXX  OO",
"    ++++++++++++++++++++++++++++++++++++++++++++++++++++++++    ",
"    ++++++++++++++++++++++++++++++++++++++++++++++++++++++++    ",
"XX++++++..............................................++++++++XX",
"XX++++..................................................++++++XX",
"XX+++....................................................+++++XX",
"XX+++......................................................+++XX",
"XX++........................................................++XX",
"XX++........................................................++XX",
"XX++........................................................++XX",
"XX++........................................................++XX",
"XX++........................................................++XX",
"XX++........................................................++XX",
"XX++..@@......@@....@@@@....@@......@@..@@@@@@@@....@@@@@@..++XX",
"XX++..@@......@@....@@@@....@@......@@..@@@@@@@@....@@@@@@..++XX",
"oo++..@@@@..@@@@..@@....@@..@@......@@..@@........@@........++XX",
"oo++..@@@@..@@@@..@@....@@..@@......@@..@@........@@........++XX",
"oo++..@@..@@..@@..@@....@@....@@..@@....@@@@@@......@@@@....++oo",
"oo++..@@..@@..@@..@@....@@....@@..@@....@@@@@@......@@@@....++oo",
"oo++..@@......@@..@@....@@....@@..@@....@@..............@@..++oo",
"oo++..@@......@@..@@....@@....@@..@@....@@..............@@..++oo",
"XX++..@@......@@....@@@@........@@......@@@@@@@@..@@@@@@....++oo",
"XX++..@@......@@....@@@@........@@......@@@@@@@@..@@@@@@....++oo",
"XX++........................................................++XX",
"XX++........................................................++XX",
"XX++........................................................++XX",
"XX++........................................................++XX",
"XX++........................................................++XX",
"XX++........................................................++XX",
"XX++........................................................++XX",
"XX++........................................................++XX",
"oo++........................................................++XX",
"oo++........................................................++XX",
"oo++........................................................++oo",
"oo++........................................................++oo",
"oo++........................................................++oo",
"oo++........................................................++oo",
"XX++........................................................++oo",
"XX++........................................................++oo",
"oo++........................................................++XX",
"oo++........................................................++XX",
"oo++........................................................++oo",
"oo++........................................................++oo",
"oo++........................................................++oo",
"oo++........................................................++oo",
"XX++........................................................++oo",
"XX++........................................................++oo",
"XX++........................................................++XX",
"XX++........................................................++XX",
"XX++........................................................++XX",
"XX++........................................................++XX",
"oo++........................................................++XX",
"oo++........................................................++XX",
"oo+++.......................................................++XX",
"oo+++......................................................+++XX",
"XX++++....................................................++++XX",
"XX+++++..................................................+++++XX",
"XX+++++.................................................++++++XX",
"XX++++++...............................................+++++++XX",
"   .++++++++++++++++++++++++++++++++++++++++++++++++++++++++    ",
"    ++++++++++++++++++++++++++++++++++++++++++++++++++++++++    ",
"OO  XXXXXXXXXXXXXXXXXXXXXXXXXXXXXXXXXXXXXXXXXXXXXXXXXXXXXXXX  OO",
"OO  XXXXXXXXXXXXXXXXXXXXXXXXXXXXXXXXXXXXXXXXXXXXXXXXXXXXXXXX  OO"
};
