/* XPM */
static char *a8a3953e648048679fe081a36f337e65XDdSElYpmqFXQRTV[] = {
/* columns rows colors chars-per-pixel */
"64 64 9 1 ",
"  c black",
". c #0D0614",
"X c #170A24",
"o c #2A1140",
"O c #421A63",
"+ c #61258F",
"@ c #6E29AB",
"# c #801FC9",
"$ c #8020C9",
/* pixels */
"                                                                ",
"                                                                ",
"                                                                ",
"                                                                ",
"                                                                ",
"                                                                ",
"                                                                ",
"                                                                ",
"                                                                ",
"                                                                ",
"                                                                ",
"                            $                                   ",
"                           $        $$$$$$                      ",
"                          $        $$$$$$$$$#                   ",
"                         $$     $$$$$$$$$$$$$#                  ",
"                        $$$    $$$$$$$$$$$$$$$#                 ",
"                        +$$$  $$$$+$$+$$+$$$                    ",
"                       ++$$$$$$$++++++++++$$$                   ",
"                      +++$$$$$$++++@+++$+++$                    ",
"                 #   +++$$$$$@+++++@@@$$$+++$ $$                ",
"                #$  +++$$$@@@+++++++++@@$$$$$$$$$$              ",
"                $$  +++$$@@+++++O+++++++@$$$$$$$$$$             ",
"                $$$$+++$@@++++OOOOOOO++++@$$$$$$$$$$            ",
"                $$$+++$@@++OOOOOOooOOOO+++@$+$$$$$$$$           ",
"                $$$+++@@++OOOoOooooooOOO++++++$$$$$$$$          ",
"               $$$$$+++++OOOooooXooXooOOO++++++$$$$$ $$         ",
"               $$$$$++@++OOoooXXXXXXXooOO+++@+++$$$             ",
"               $$$$++++++OoooXXXXXXXXXooOO+++$+++$              ",
"                $$$$++++OOOoXXX.....XXXoOO++@@$+++$             ",
"                 $$$++++OOooXX.......XoooO+++$$$+++             ",
"                 $$$$+++OOooXX......XXXooOO++@$$$+$             ",
"                 $$$$@++OOooXX......XXXooOO++@$$$++             ",
"                 $$$$+++OOooXX.......XoooO+++$$$+++$            ",
"             $   $$$$@++OOOoXXX.....XXXoOO++@@$$$+$$$           ",
"             $$   $$$$+++OoooXXXXXXXXXooOO+++$$$$$$$$           ",
"             $$$$$$$$$@++OOoooXXXXXXXooOO+++@$$$$$$$$$          ",
"              $$$$$$$$$++OOOooooXooXooOOO+++$$$$$$$$$           ",
"               $$$$$$$@@++OOOoOooooooOOO+++@$$$$$   $           ",
"                $++$$$$@@++OOOOOOooOOOO++++$$$$$   $$           ",
"                 +++$$$$@@++++OOOOOOO+++++++$$$$   $            ",
"                  +++$$$$@@+++++O+++++++@++$$$$                 ",
"                   ++++$++@@@+++++++++@@++$$$$                  ",
"                    ++++++++++++@++@@@$+++$$$$                  ",
"                      + ++++++$$@$$@$++++$$$$$                  ",
"                         +++$$$$$$$$++++$$$$$                   ",
"                         $$$$$$$$$++++$$$$$$                    ",
"                         $$$$$$$$++++$$$$$$                     ",
"                      $$$$$$$$$$+     $$$$                      ",
"                     # $$$$$$$$$       $$$                      ",
"                                      $$$                       ",
"                                    $$ $                        ",
"                                   $$$$                         ",
"                                    $$                          ",
"                                                                ",
"                                                                ",
"                                                                ",
"                                                                ",
"                                                                ",
"                                                                ",
"                                                                ",
"                                                                ",
"                                                                ",
"                                                                ",
"                                                                "
};
