/* XPM */
static char *f0f6c403efe2486895114354ac7dd737qKbzJJlYNx6pePHe[] = {
/* columns rows colors chars-per-pixel */
"30 27 14 1 ",
"  c None",
". c #383D42",
"X c #42484D",
"o c #494848",
"O c gray37",
"+ c #6A6868",
"@ c #EF3A0C",
"# c #EFAC28",
"$ c #5722B6",
"% c #6728D6",
"& c #8B8785",
"* c #B0ACAA",
"= c #B0D6FF",
"- c white",
/* pixels */
"              XX              ",
"             X--X             ",
"            X----X            ",
"           X--%%--X           ",
"           X-%=-%-X           ",
"           X-%=-%-X           ",
"           X-%==%-X           ",
"           X*%==%*X           ",
"          .&o*%%*o&.          ",
"         .&**o**o**&.         ",
"         .&---oo---&.         ",
"      oo.&*---&&---*&.oo      ",
"     o+.&.*---&&---*.&.+o     ",
"     ..&*&..--&&--..&*&..     ",
".   .&&--*.$.-..-.$.*--&&.   .",
"....&----*.$$.&&.$$.*----&....",
".$$.-----*.$%$..$%$.*-----.$$.",
".$%.-----*.$%%..%%$.*-----.%$.",
".$%.-----*.$%%..%%$.*-----.%$.",
".$%.-----*.$%%..%%$.*-----.%$.",
" ..........$%%..%%$.......... ",
"     o++o  oOO&&OOo  o++o     ",
"      oo    oO++Oo    oo      ",
"            @oooo@            ",
"             @##@             ",
"             @@@@             ",
"              @@              "
};
