/* XPM */
static char *de1811589c1c40a2cef875befa4ffc7dBubCnEgSStp2m4h4[] = {
/* columns rows colors chars-per-pixel */
"27 30 11 1 ",
"  c None",
". c #42484D",
"X c #494848",
"o c #6A6868",
"O c #EF3A0C",
"+ c #EFAC28",
"@ c #5722B6",
"# c #6728D6",
"$ c #8B8785",
"% c #B0D6FF",
"& c white",
/* pixels */
"       ......              ",
"      .@@@@.               ",
"      .###@.               ",
"      ......               ",
"      .&&&&$.              ",
"     ..&&&&&$..            ",
"    .o.&&&&&$.$.           ",
"    .o.&&&&&&$..           ",
"     ..&&&&&&$$.           ",
"      .$$$$$$$.$..         ",
"      ........$$$$.        ",
"     .@@@@@@@.&&$$$.....   ",
"   O.o#####@.&&&&$.$&&&&.  ",
" OOXoo####@.&&&&&.$####&&. ",
"OO+Xo$.....$.$$$.$#%%&&#&&.",
"OO+Xo$.....$.$$$.$#%%%%#&&.",
" OOXoo####@.&&&&&.$####&&. ",
"   O.o#####@.&&&&$.$&&&&.  ",
"     .@@@@@@@.&&$$$.....   ",
"      ........$$$$.        ",
"      .$$$$$$$.$..         ",
"     ..&&&&&&$$.           ",
"    .o.&&&&&&$..           ",
"    .o.&&&&&$.$.           ",
"     ..&&&&&$..            ",
"      .&&&&$.              ",
"      ......               ",
"      .###@.               ",
"      .@@@@.               ",
"       ......              "
};
