/* XPM */
static char *de067f3be17a4eb5f8f34c9695631f10mTuwhsgIo0l9UZR3[] = {
/* columns rows colors chars-per-pixel */
"30 27 11 1 ",
"  c None",
". c #42484D",
"X c #494848",
"o c #6A6868",
"O c #EF3A0C",
"+ c #EFAC28",
"@ c #5722B6",
"# c #6728D6",
"$ c #8B8785",
"% c #B0D6FF",
"& c white",
/* pixels */
"              OO              ",
"             OOOO             ",
"             O++O             ",
"            OXXXXO            ",
"      ..    .oooo.    ..      ",
"     .oo.  .oo$$oo.  .oo.     ",
" ..........@##..##@.......... ",
".@#.&&&&&$.@##..##@.$&&&&&.#@.",
".@#.&&&&&$.@##..##@.$&&&&&.#@.",
".@#.&&&&&$.@##..##@.$&&&&&.#@.",
".@@.&&&&&$.@#@..@#@.$&&&&&.@@.",
"....$&&&&$.@@.$$.@@.$&&&&$....",
".   .$$&&$.@.&..&.@.$&&$$.   .",
"     ..$$$..&&$$&&..$$$..     ",
"     .$.$.$&&&$$&&&$.$.$.     ",
"      ...$$&&&$$&&&$$...      ",
"         .$$&&..&&$$.         ",
"         .$$$.$$.$$$.         ",
"          .$.$##$.$.          ",
"           .$#%%#$.           ",
"           .&#%%#&.           ",
"           .&#&%#&.           ",
"           .&#&%#&.           ",
"           .&&##&&.           ",
"            .&&&&.            ",
"             .&&.             ",
"              ..              "
};
