/* XPM */
static char *ad75ef82e9e74568e464d379cf5ed4efAh9oDzQIFdj66jAV[] = {
/* columns rows colors chars-per-pixel */
"27 30 11 1 ",
"  c None",
". c #42484D",
"X c #494848",
"o c #6A6868",
"O c #EF3A0C",
"+ c #EFAC28",
"@ c #5722B6",
"# c #6728D6",
"$ c #8B8785",
"% c #B0D6FF",
"& c white",
/* pixels */
"              ......       ",
"               .@@@@.      ",
"               .@###.      ",
"               ......      ",
"              .$&&&&.      ",
"            ..$&&&&&..     ",
"           .$.$&&&&&.o.    ",
"           ..$&&&&&&.o.    ",
"           .$$&&&&&&..     ",
"         ..$.$$$$$$$.      ",
"        .$$$$........      ",
"   .....$$$&&.@@@@@@@.     ",
"  .&&&&$.$&&&&.@#####o.O   ",
" .&&####$.&&&&&.@####ooXOO ",
".&&#&&%%#$.$$$.$.....$oX+OO",
".&&#%%%%#$.$$$.$.....$oX+OO",
" .&&####$.&&&&&.@####ooXOO ",
"  .&&&&$.$&&&&.@#####o.O   ",
"   .....$$$&&.@@@@@@@.     ",
"        .$$$$........      ",
"         ..$.$$$$$$$.      ",
"           .$$&&&&&&..     ",
"           ..$&&&&&&.o.    ",
"           .$.$&&&&&.o.    ",
"            ..$&&&&&..     ",
"              .$&&&&.      ",
"               ......      ",
"               .@###.      ",
"               .@@@@.      ",
"              ......       "
};
