/* XPM */
static char *_a67f4e0554f4023d71164073c57a243UXsxcjjTknEMGmpw[] = {
/* columns rows colors chars-per-pixel */
"53 28 12 1 ",
"  c None",
". c black",
"X c #2E474B",
"o c #30474B",
"O c #42484D",
"+ c #606B6D",
"@ c #656D70",
"# c #F7E26B",
"$ c #31A2F2",
"% c #ADE0E9",
"& c gray80",
"* c white",
/* pixels */
"                       OOOOOOO                       ",
"                    OOO%%%%%%%OOO                    ",
"                  OO%%%$$$$$$$**%OO                  ",
"                 O%%$$$$$$$$$****%%O                 ",
"                O%$$$$$$$$$$$****$$%O                ",
"               O%$$$$$$$$$$$$$**$$$$%O               ",
"              O%$$$$$$$$$$$$$$$$$$$$$%O              ",
"              O%$$$$$$$$$$$$$$$$$$**$%O              ",
"             O%$$$$$$$+++++++++$$$**$$%O             ",
"             O%$$++++++++++++++++++$$$%O             ",
"          OOOO%$++++++X.......X++++++$%OOOO          ",
"       OOO**&&.%%X.................X%%.&&**OOO       ",
"     OO##*&&&@@..%%%%%.........%%%%%..@@&&&*##OO     ",
"   OO*OO&&&@@&&&&.....%%%%%%%%%.....&&&&@@&&&OO*OO   ",
"  O**&&&&@@&&&&&&&&@&&.........&&@&&&&&&&&@@&&&&**O  ",
" O*&&&&@@&&&&&&&&&@&&&&&&&@&&&&&&&@&&&&&&&&&@@&&&&*O ",
"O*&&&@@&&&&&##&&&&@&&&&&&&@&&&&&&&@&&&&##&&&&&@@&&&*O",
"O*&@@&&&&&&..&&&&@&&&&&&&&@&&&&&&&&@&&&&..&&&&&&@@&*O",
"O@*&&&&&&&&&&&&&&@&&&##&&&@&&&##&&&@&&&&&&&&&&&&&&*@O",
" O@@**&&&&&&&&&&@&&&&..&&&@&&&..&&&&@&&&&&&&&&&**@@O ",
"  Oo@@@**&&&&&&&@&&&&&&&&&@&&&&&&&&&@&&&&&&&**@@@oO  ",
"   OOo@@@@@**&&@&&&&&&&&&&@&&&&&&&&&&@&&**@@@@@oOO   ",
"     OOo@@@@@@@@*********************@@@@@@@@oOO     ",
"       OOo@@@@@@@@@@@@@@@@@@@@@@@@@@@@@@@@@oOO       ",
"         OOOoo@@@@@@@@@@@@@@@@@@@@@@@@@ooOOO         ",
"            OOOoo@@@@@@@@@@@@@@@@@@@ooOOO            ",
"               OOOOoooooooooooooooOOOO               ",
"                   OOOOOOOOOOOOOOO                   "
};
